<?xml version="1.0" encoding="UTF-8" standalone="no"?>
<!DOCTYPE svg PUBLIC "-//W3C//DTD SVG 1.1//EN"
 "http://www.w3.org/Graphics/SVG/1.1/DTD/svg11.dtd">
<!-- Generated by graphviz version 2.43.0 (0)
 -->
<!-- Title: G Pages: 1 -->
<svg width="1552pt" height="225pt"
 viewBox="0.00 0.00 1552.00 225.00" xmlns="http://www.w3.org/2000/svg" xmlns:xlink="http://www.w3.org/1999/xlink">
<g id="graph0" class="graph" transform="scale(1 1) rotate(0) translate(4 221)">
<title>G</title>
<polygon fill="white" stroke="transparent" points="-4,4 -4,-221 1548,-221 1548,4 -4,4"/>
<text text-anchor="middle" x="772" y="-205" font-family="Times,serif" font-size="10.00">Primary care funding architecture: artefact lineage v0.5.0</text>
<!-- thesis -->
<g id="node1" class="node">
<title>thesis</title>
<path fill="none" stroke="black" d="M200,-171C200,-171 12,-171 12,-171 6,-171 0,-165 0,-159 0,-159 0,-147 0,-147 0,-141 6,-135 12,-135 12,-135 200,-135 200,-135 206,-135 212,-141 212,-147 212,-147 212,-159 212,-159 212,-165 206,-171 200,-171"/>
<text text-anchor="middle" x="106" y="-156" font-family="Times,serif" font-size="10.00">Core thesis</text>
<text text-anchor="middle" x="106" y="-145" font-family="Times,serif" font-size="10.00">wood&#45;from&#45;trees / upstream constraint</text>
</g>
<!-- map -->
<g id="node4" class="node">
<title>map</title>
<path fill="none" stroke="black" d="M425.5,-171C425.5,-171 324.5,-171 324.5,-171 318.5,-171 312.5,-165 312.5,-159 312.5,-159 312.5,-147 312.5,-147 312.5,-141 318.5,-135 324.5,-135 324.5,-135 425.5,-135 425.5,-135 431.5,-135 437.5,-141 437.5,-147 437.5,-147 437.5,-159 437.5,-159 437.5,-165 431.5,-171 425.5,-171"/>
<text text-anchor="middle" x="375" y="-156" font-family="Times,serif" font-size="10.00">NZ game atlas</text>
<text text-anchor="middle" x="375" y="-145" font-family="Times,serif" font-size="10.00">14 component games</text>
</g>
<!-- thesis&#45;&gt;map -->
<g id="edge1" class="edge">
<title>thesis&#45;&gt;map</title>
<path fill="none" stroke="black" d="M212.14,-153C242.29,-153 274.47,-153 302.12,-153"/>
<polygon fill="black" stroke="black" points="302.48,-156.5 312.48,-153 302.48,-149.5 302.48,-156.5"/>
</g>
<!-- sources -->
<g id="node2" class="node">
<title>sources</title>
<path fill="none" stroke="black" d="M467.5,-63C467.5,-63 282.5,-63 282.5,-63 276.5,-63 270.5,-57 270.5,-51 270.5,-51 270.5,-39 270.5,-39 270.5,-33 276.5,-27 282.5,-27 282.5,-27 467.5,-27 467.5,-27 473.5,-27 479.5,-33 479.5,-39 479.5,-39 479.5,-51 479.5,-51 479.5,-57 473.5,-63 467.5,-63"/>
<text text-anchor="middle" x="375" y="-48" font-family="Times,serif" font-size="10.00">Public sources</text>
<text text-anchor="middle" x="375" y="-37" font-family="Times,serif" font-size="10.00">MoH, Health NZ, HDSR, PHO finance</text>
</g>
<!-- claims -->
<g id="node6" class="node">
<title>claims</title>
<path fill="none" stroke="black" d="M645,-117C645,-117 550,-117 550,-117 544,-117 538,-111 538,-105 538,-105 538,-93 538,-93 538,-87 544,-81 550,-81 550,-81 645,-81 645,-81 651,-81 657,-87 657,-93 657,-93 657,-105 657,-105 657,-111 651,-117 645,-117"/>
<text text-anchor="middle" x="597.5" y="-102" font-family="Times,serif" font-size="10.00">Claim&#45;source ledger</text>
<text text-anchor="middle" x="597.5" y="-91" font-family="Times,serif" font-size="10.00">C001&#45;C025</text>
</g>
<!-- sources&#45;&gt;claims -->
<g id="edge2" class="edge">
<title>sources&#45;&gt;claims</title>
<path fill="none" stroke="black" d="M463.95,-63.06C476.75,-65.91 489.74,-68.94 502,-72 510.48,-74.12 519.35,-76.47 528.11,-78.87"/>
<polygon fill="black" stroke="black" points="527.36,-82.3 537.94,-81.61 529.24,-75.56 527.36,-82.3"/>
</g>
<!-- theory -->
<g id="node3" class="node">
<title>theory</title>
<path fill="none" stroke="black" d="M490,-117C490,-117 260,-117 260,-117 254,-117 248,-111 248,-105 248,-105 248,-93 248,-93 248,-87 254,-81 260,-81 260,-81 490,-81 490,-81 496,-81 502,-87 502,-93 502,-93 502,-105 502,-105 502,-111 496,-117 490,-117"/>
<text text-anchor="middle" x="375" y="-102" font-family="Times,serif" font-size="10.00">Theory</text>
<text text-anchor="middle" x="375" y="-91" font-family="Times,serif" font-size="10.00">microeconomics, game theory, transaction cost</text>
</g>
<!-- theory&#45;&gt;claims -->
<g id="edge3" class="edge">
<title>theory&#45;&gt;claims</title>
<path fill="none" stroke="black" d="M502.03,-99C510.78,-99 519.39,-99 527.65,-99"/>
<polygon fill="black" stroke="black" points="527.89,-102.5 537.89,-99 527.89,-95.5 527.89,-102.5"/>
</g>
<!-- formal -->
<g id="node5" class="node">
<title>formal</title>
<path fill="none" stroke="black" d="M840,-171C840,-171 711,-171 711,-171 705,-171 699,-165 699,-159 699,-159 699,-147 699,-147 699,-141 705,-135 711,-135 711,-135 840,-135 840,-135 846,-135 852,-141 852,-147 852,-147 852,-159 852,-159 852,-165 846,-171 840,-171"/>
<text text-anchor="middle" x="775.5" y="-156" font-family="Times,serif" font-size="10.00">Formal game model</text>
<text text-anchor="middle" x="775.5" y="-145" font-family="Times,serif" font-size="10.00">players, strategies, payoffs</text>
</g>
<!-- map&#45;&gt;formal -->
<g id="edge4" class="edge">
<title>map&#45;&gt;formal</title>
<path fill="none" stroke="black" d="M437.83,-153C505.06,-153 612.99,-153 688.47,-153"/>
<polygon fill="black" stroke="black" points="688.9,-156.5 698.9,-153 688.9,-149.5 688.9,-156.5"/>
</g>
<!-- map&#45;&gt;claims -->
<g id="edge5" class="edge">
<title>map&#45;&gt;claims</title>
<path fill="none" stroke="black" d="M437.71,-140.64C458.24,-136.3 481.16,-131.2 502,-126 510.48,-123.88 519.35,-121.53 528.11,-119.13"/>
<polygon fill="black" stroke="black" points="529.24,-122.44 537.94,-116.39 527.36,-115.7 529.24,-122.44"/>
</g>
<!-- sd -->
<g id="node10" class="node">
<title>sd</title>
<path fill="none" stroke="black" d="M1060.5,-144C1060.5,-144 934.5,-144 934.5,-144 928.5,-144 922.5,-138 922.5,-132 922.5,-132 922.5,-120 922.5,-120 922.5,-114 928.5,-108 934.5,-108 934.5,-108 1060.5,-108 1060.5,-108 1066.5,-108 1072.5,-114 1072.5,-120 1072.5,-120 1072.5,-132 1072.5,-132 1072.5,-138 1066.5,-144 1060.5,-144"/>
<text text-anchor="middle" x="997.5" y="-129" font-family="Times,serif" font-size="10.00">System dynamics</text>
<text text-anchor="middle" x="997.5" y="-118" font-family="Times,serif" font-size="10.00">feedback loops and stocks</text>
</g>
<!-- formal&#45;&gt;sd -->
<g id="edge11" class="edge">
<title>formal&#45;&gt;sd</title>
<path fill="none" stroke="black" d="M852.21,-143.71C871.48,-141.34 892.3,-138.79 911.97,-136.37"/>
<polygon fill="black" stroke="black" points="912.64,-139.82 922.14,-135.13 911.79,-132.87 912.64,-139.82"/>
</g>
<!-- abm -->
<g id="node11" class="node">
<title>abm</title>
<path fill="none" stroke="black" d="M1062.5,-198C1062.5,-198 932.5,-198 932.5,-198 926.5,-198 920.5,-192 920.5,-186 920.5,-186 920.5,-174 920.5,-174 920.5,-168 926.5,-162 932.5,-162 932.5,-162 1062.5,-162 1062.5,-162 1068.5,-162 1074.5,-168 1074.5,-174 1074.5,-174 1074.5,-186 1074.5,-186 1074.5,-192 1068.5,-198 1062.5,-198"/>
<text text-anchor="middle" x="997.5" y="-183" font-family="Times,serif" font-size="10.00">Agent&#45;based model</text>
<text text-anchor="middle" x="997.5" y="-172" font-family="Times,serif" font-size="10.00">agents and contact choices</text>
</g>
<!-- formal&#45;&gt;abm -->
<g id="edge12" class="edge">
<title>formal&#45;&gt;abm</title>
<path fill="none" stroke="black" d="M852.21,-162.29C870.95,-164.59 891.15,-167.07 910.35,-169.43"/>
<polygon fill="black" stroke="black" points="909.92,-172.9 920.28,-170.65 910.78,-165.95 909.92,-172.9"/>
</g>
<!-- audit -->
<g id="node7" class="node">
<title>audit</title>
<path fill="none" stroke="black" d="M846,-117C846,-117 705,-117 705,-117 699,-117 693,-111 693,-105 693,-105 693,-93 693,-93 693,-87 699,-81 705,-81 705,-81 846,-81 846,-81 852,-81 858,-87 858,-93 858,-93 858,-105 858,-105 858,-111 852,-117 846,-117"/>
<text text-anchor="middle" x="775.5" y="-102" font-family="Times,serif" font-size="10.00">Audit dossier</text>
<text text-anchor="middle" x="775.5" y="-91" font-family="Times,serif" font-size="10.00">quality gates and traceability</text>
</g>
<!-- claims&#45;&gt;audit -->
<g id="edge6" class="edge">
<title>claims&#45;&gt;audit</title>
<path fill="none" stroke="black" d="M657.11,-99C665.37,-99 674.03,-99 682.73,-99"/>
<polygon fill="black" stroke="black" points="682.95,-102.5 692.95,-99 682.95,-95.5 682.95,-102.5"/>
</g>
<!-- review -->
<g id="node8" class="node">
<title>review</title>
<path fill="none" stroke="black" d="M1049,-90C1049,-90 946,-90 946,-90 940,-90 934,-84 934,-78 934,-78 934,-66 934,-66 934,-60 940,-54 946,-54 946,-54 1049,-54 1049,-54 1055,-54 1061,-60 1061,-66 1061,-66 1061,-78 1061,-78 1061,-84 1055,-90 1049,-90"/>
<text text-anchor="middle" x="997.5" y="-75" font-family="Times,serif" font-size="10.00">Evidence review</text>
<text text-anchor="middle" x="997.5" y="-64" font-family="Times,serif" font-size="10.00">PRISMA&#45;ScR protocol</text>
</g>
<!-- audit&#45;&gt;review -->
<g id="edge7" class="edge">
<title>audit&#45;&gt;review</title>
<path fill="none" stroke="black" d="M858.11,-88.98C879.65,-86.34 902.75,-83.51 923.79,-80.92"/>
<polygon fill="black" stroke="black" points="924.44,-84.37 933.94,-79.68 923.59,-77.42 924.44,-84.37"/>
</g>
<!-- qual -->
<g id="node9" class="node">
<title>qual</title>
<path fill="none" stroke="black" d="M1089,-36C1089,-36 906,-36 906,-36 900,-36 894,-30 894,-24 894,-24 894,-12 894,-12 894,-6 900,0 906,0 906,0 1089,0 1089,0 1095,0 1101,-6 1101,-12 1101,-12 1101,-24 1101,-24 1101,-30 1095,-36 1089,-36"/>
<text text-anchor="middle" x="997.5" y="-21" font-family="Times,serif" font-size="10.00">Stakeholder validation</text>
<text text-anchor="middle" x="997.5" y="-10" font-family="Times,serif" font-size="10.00">interview guides and sampling frame</text>
</g>
<!-- audit&#45;&gt;qual -->
<g id="edge8" class="edge">
<title>audit&#45;&gt;qual</title>
<path fill="none" stroke="black" d="M811.57,-80.94C834.58,-69.58 865.58,-55.19 894,-45 899.85,-42.9 905.95,-40.89 912.12,-38.97"/>
<polygon fill="black" stroke="black" points="913.29,-42.27 921.85,-36.04 911.27,-35.57 913.29,-42.27"/>
</g>
<!-- audit&#45;&gt;sd -->
<g id="edge9" class="edge">
<title>audit&#45;&gt;sd</title>
<path fill="none" stroke="black" d="M858.11,-109.02C875.69,-111.17 894.31,-113.46 912,-115.63"/>
<polygon fill="black" stroke="black" points="911.94,-119.15 922.29,-116.89 912.79,-112.2 911.94,-119.15"/>
</g>
<!-- audit&#45;&gt;abm -->
<g id="edge10" class="edge">
<title>audit&#45;&gt;abm</title>
<path fill="none" stroke="black" d="M838.35,-117.11C845.12,-119.79 851.79,-122.75 858,-126 875.72,-135.27 876,-144.29 894,-153 899.31,-155.57 904.89,-157.91 910.6,-160.06"/>
<polygon fill="black" stroke="black" points="909.7,-163.45 920.29,-163.47 912.02,-156.85 909.7,-163.45"/>
</g>
<!-- briefs -->
<g id="node12" class="node">
<title>briefs</title>
<path fill="none" stroke="black" d="M1331,-90C1331,-90 1149,-90 1149,-90 1143,-90 1137,-84 1137,-78 1137,-78 1137,-66 1137,-66 1137,-60 1143,-54 1149,-54 1149,-54 1331,-54 1331,-54 1337,-54 1343,-60 1343,-66 1343,-66 1343,-78 1343,-78 1343,-84 1337,-90 1331,-90"/>
<text text-anchor="middle" x="1240" y="-75" font-family="Times,serif" font-size="10.00">Policy briefs</text>
<text text-anchor="middle" x="1240" y="-64" font-family="Times,serif" font-size="10.00">RACMA/NZ/Aus/PHO/ambulance/KPI</text>
</g>
<!-- review&#45;&gt;briefs -->
<g id="edge13" class="edge">
<title>review&#45;&gt;briefs</title>
<path fill="none" stroke="black" d="M1061.06,-72C1081.1,-72 1103.93,-72 1126.41,-72"/>
<polygon fill="black" stroke="black" points="1126.7,-75.5 1136.7,-72 1126.7,-68.5 1126.7,-75.5"/>
</g>
<!-- qual&#45;&gt;briefs -->
<g id="edge14" class="edge">
<title>qual&#45;&gt;briefs</title>
<path fill="none" stroke="black" d="M1078.92,-36.06C1101.28,-41.08 1125.71,-46.56 1148.61,-51.7"/>
<polygon fill="black" stroke="black" points="1148.13,-55.18 1158.66,-53.96 1149.67,-48.35 1148.13,-55.18"/>
</g>
<!-- nzmj -->
<g id="node14" class="node">
<title>nzmj</title>
<path fill="none" stroke="black" d="M1532,-144C1532,-144 1391,-144 1391,-144 1385,-144 1379,-138 1379,-132 1379,-132 1379,-120 1379,-120 1379,-114 1385,-108 1391,-108 1391,-108 1532,-108 1532,-108 1538,-108 1544,-114 1544,-120 1544,-120 1544,-132 1544,-132 1544,-138 1538,-144 1532,-144"/>
<text text-anchor="middle" x="1461.5" y="-129" font-family="Times,serif" font-size="10.00">NZMJ pathway</text>
<text text-anchor="middle" x="1461.5" y="-118" font-family="Times,serif" font-size="10.00">Viewpoint or empirical article</text>
</g>
<!-- sd&#45;&gt;nzmj -->
<g id="edge15" class="edge">
<title>sd&#45;&gt;nzmj</title>
<path fill="none" stroke="black" d="M1072.73,-126C1153.21,-126 1281.75,-126 1368.56,-126"/>
<polygon fill="black" stroke="black" points="1368.67,-129.5 1378.67,-126 1368.67,-122.5 1368.67,-129.5"/>
</g>
<!-- abm&#45;&gt;nzmj -->
<g id="edge16" class="edge">
<title>abm&#45;&gt;nzmj</title>
<path fill="none" stroke="black" d="M1074.79,-171.21C1144.61,-163.15 1250.76,-150.85 1343,-140 1351.36,-139.02 1360.05,-137.99 1368.76,-136.96"/>
<polygon fill="black" stroke="black" points="1369.45,-140.4 1378.96,-135.75 1368.62,-133.45 1369.45,-140.4"/>
</g>
<!-- substack -->
<g id="node13" class="node">
<title>substack</title>
<path fill="none" stroke="black" d="M1505,-90C1505,-90 1418,-90 1418,-90 1412,-90 1406,-84 1406,-78 1406,-78 1406,-66 1406,-66 1406,-60 1412,-54 1418,-54 1418,-54 1505,-54 1505,-54 1511,-54 1517,-60 1517,-66 1517,-66 1517,-78 1517,-78 1517,-84 1511,-90 1505,-90"/>
<text text-anchor="middle" x="1461.5" y="-75" font-family="Times,serif" font-size="10.00">Substack series</text>
<text text-anchor="middle" x="1461.5" y="-64" font-family="Times,serif" font-size="10.00">public explanation</text>
</g>
<!-- briefs&#45;&gt;substack -->
<g id="edge17" class="edge">
<title>briefs&#45;&gt;substack</title>
<path fill="none" stroke="black" d="M1343.04,-72C1361.03,-72 1379.29,-72 1395.89,-72"/>
<polygon fill="black" stroke="black" points="1395.99,-75.5 1405.99,-72 1395.99,-68.5 1395.99,-75.5"/>
</g>
<!-- briefs&#45;&gt;nzmj -->
<g id="edge18" class="edge">
<title>briefs&#45;&gt;nzmj</title>
<path fill="none" stroke="black" d="M1314.4,-90.06C1334.62,-95.03 1356.71,-100.47 1377.44,-105.57"/>
<polygon fill="black" stroke="black" points="1376.63,-108.97 1387.17,-107.96 1378.3,-102.17 1376.63,-108.97"/>
</g>
</g>
</svg>
