<?xml version="1.0" encoding="UTF-8" standalone="no"?>
<!DOCTYPE svg PUBLIC "-//W3C//DTD SVG 1.1//EN"
 "http://www.w3.org/Graphics/SVG/1.1/DTD/svg11.dtd">
<!-- Generated by graphviz version 2.42.4 (0)
 -->
<!-- Title: HybridModel Pages: 1 -->
<svg width="1828pt" height="337pt"
 viewBox="0.00 0.00 1828.00 336.72" xmlns="http://www.w3.org/2000/svg" xmlns:xlink="http://www.w3.org/1999/xlink">
<g id="graph0" class="graph" transform="scale(1 1) rotate(0) translate(4 332.72)">
<title>HybridModel</title>
<polygon fill="white" stroke="transparent" points="-4,4 -4,-332.72 1824,-332.72 1824,4 -4,4"/>
<!-- Funding -->
<g id="node1" class="node">
<title>Funding</title>
<path fill="white" stroke="#595959" d="M926,-38C926,-38 713,-38 713,-38 707,-38 701,-32 701,-26 701,-26 701,-12 701,-12 701,-6 707,0 713,0 713,0 926,0 926,0 932,0 938,-6 938,-12 938,-12 938,-26 938,-26 938,-32 932,-38 926,-38"/>
<text text-anchor="middle" x="819.5" y="-22.8" font-family="Arial" font-size="14.00">Funding architecture</text>
<text text-anchor="middle" x="819.5" y="-7.8" font-family="Arial" font-size="14.00">(capitation + contact benefits + ACC)</text>
</g>
<!-- Access -->
<g id="node7" class="node">
<title>Access</title>
<path fill="white" stroke="#595959" d="M1210,-149C1210,-149 1048,-149 1048,-149 1042,-149 1036,-143 1036,-137 1036,-137 1036,-125 1036,-125 1036,-119 1042,-113 1048,-113 1048,-113 1210,-113 1210,-113 1216,-113 1222,-119 1222,-125 1222,-125 1222,-137 1222,-137 1222,-143 1216,-149 1210,-149"/>
<text text-anchor="middle" x="1129" y="-127.3" font-family="Arial" font-size="14.00">Upstream access generated</text>
</g>
<!-- Funding&#45;&gt;Access -->
<g id="edge1" class="edge">
<title>Funding&#45;&gt;Access</title>
<path fill="none" stroke="#595959" d="M938.06,-30.21C958.77,-34.21 979.82,-39.64 999,-47 1035.99,-61.19 1073.4,-87.12 1098.33,-106.42"/>
<polygon fill="#595959" stroke="#595959" points="1096.27,-109.26 1106.29,-112.69 1100.6,-103.76 1096.27,-109.26"/>
</g>
<!-- Claiming -->
<g id="node2" class="node">
<title>Claiming</title>
<path fill="white" stroke="#595959" d="M959.5,-262C959.5,-262 679.5,-262 679.5,-262 673.5,-262 667.5,-256 667.5,-250 667.5,-250 667.5,-236 667.5,-236 667.5,-230 673.5,-224 679.5,-224 679.5,-224 959.5,-224 959.5,-224 965.5,-224 971.5,-230 971.5,-236 971.5,-236 971.5,-250 971.5,-250 971.5,-256 965.5,-262 959.5,-262"/>
<text text-anchor="middle" x="819.5" y="-246.8" font-family="Arial" font-size="14.00">Payment gateway</text>
<text text-anchor="middle" x="819.5" y="-231.8" font-family="Arial" font-size="14.00">(direct/optional claiming vs PHO intermediation)</text>
</g>
<!-- Claiming&#45;&gt;Access -->
<g id="edge2" class="edge">
<title>Claiming&#45;&gt;Access</title>
<path fill="none" stroke="#595959" d="M971.68,-223.95C981.04,-221.34 990.21,-218.37 999,-215 1035.99,-200.81 1073.4,-174.88 1098.33,-155.58"/>
<polygon fill="#595959" stroke="#595959" points="1100.6,-158.24 1106.29,-149.31 1096.27,-152.74 1100.6,-158.24"/>
</g>
<!-- Scope -->
<g id="node3" class="node">
<title>Scope</title>
<path fill="white" stroke="#595959" d="M969.5,-206C969.5,-206 669.5,-206 669.5,-206 663.5,-206 657.5,-200 657.5,-194 657.5,-194 657.5,-180 657.5,-180 657.5,-174 663.5,-168 669.5,-168 669.5,-168 969.5,-168 969.5,-168 975.5,-168 981.5,-174 981.5,-180 981.5,-180 981.5,-194 981.5,-194 981.5,-200 975.5,-206 969.5,-206"/>
<text text-anchor="middle" x="819.5" y="-190.8" font-family="Arial" font-size="14.00">Scope&#45;enabled supply</text>
<text text-anchor="middle" x="819.5" y="-175.8" font-family="Arial" font-size="14.00">(GPs, NPs, pharmacists, allied health, paramedics)</text>
</g>
<!-- Scope&#45;&gt;Access -->
<g id="edge3" class="edge">
<title>Scope&#45;&gt;Access</title>
<path fill="none" stroke="#595959" d="M947.9,-167.94C965.11,-165.1 982.5,-162.08 999,-159 1011.75,-156.62 1025.16,-153.92 1038.32,-151.17"/>
<polygon fill="#595959" stroke="#595959" points="1039.26,-154.55 1048.32,-149.05 1037.81,-147.7 1039.26,-154.55"/>
</g>
<!-- Equity -->
<g id="node4" class="node">
<title>Equity</title>
<path fill="white" stroke="#595959" d="M987,-150C987,-150 652,-150 652,-150 646,-150 640,-144 640,-138 640,-138 640,-124 640,-124 640,-118 646,-112 652,-112 652,-112 987,-112 987,-112 993,-112 999,-118 999,-124 999,-124 999,-138 999,-138 999,-144 993,-150 987,-150"/>
<text text-anchor="middle" x="819.5" y="-134.8" font-family="Arial" font-size="14.00">Equity &amp; trust protections</text>
<text text-anchor="middle" x="819.5" y="-119.8" font-family="Arial" font-size="14.00">(kaupapa Maori, Pacific, locality, co&#45;payment protections)</text>
</g>
<!-- Equity&#45;&gt;Access -->
<g id="edge4" class="edge">
<title>Equity&#45;&gt;Access</title>
<path fill="none" stroke="#595959" d="M999.37,-131C1008.4,-131 1017.3,-131 1025.95,-131"/>
<polygon fill="#595959" stroke="#595959" points="1025.99,-134.5 1035.99,-131 1025.99,-127.5 1025.99,-134.5"/>
</g>
<!-- Governance -->
<g id="node5" class="node">
<title>Governance</title>
<path fill="white" stroke="#595959" d="M210,-229C210,-229 12,-229 12,-229 6,-229 0,-223 0,-217 0,-217 0,-203 0,-203 0,-197 6,-191 12,-191 12,-191 210,-191 210,-191 216,-191 222,-197 222,-203 222,-203 222,-217 222,-217 222,-223 216,-229 210,-229"/>
<text text-anchor="middle" x="111" y="-213.8" font-family="Arial" font-size="14.00">Governance &amp; controls</text>
<text text-anchor="middle" x="111" y="-198.8" font-family="Arial" font-size="14.00">(scope, safety, data, audit, coding)</text>
</g>
<!-- Governance&#45;&gt;Access -->
<g id="edge5" class="edge">
<title>Governance&#45;&gt;Access</title>
<path fill="none" stroke="#595959" d="M162.34,-229.04C302.21,-278.78 704.6,-400.06 999,-271 1051.57,-247.96 1092.18,-191.75 1112.87,-157.97"/>
<polygon fill="#595959" stroke="#595959" points="1116.05,-159.47 1118.17,-149.09 1110.04,-155.89 1116.05,-159.47"/>
</g>
<!-- KPIs -->
<g id="node10" class="node">
<title>KPIs</title>
<path fill="white" stroke="#595959" d="M446,-119C446,-119 271,-119 271,-119 265,-119 259,-113 259,-107 259,-107 259,-95 259,-95 259,-89 265,-83 271,-83 271,-83 446,-83 446,-83 452,-83 458,-89 458,-95 458,-95 458,-107 458,-107 458,-113 452,-119 446,-119"/>
<text text-anchor="middle" x="358.5" y="-97.3" font-family="Arial" font-size="14.00">Top&#45;tier KPIs and observability</text>
</g>
<!-- Governance&#45;&gt;KPIs -->
<g id="edge11" class="edge">
<title>Governance&#45;&gt;KPIs</title>
<path fill="none" stroke="#595959" d="M155.04,-190.89C197.67,-171.96 262.88,-143.01 307.71,-123.11"/>
<polygon fill="#595959" stroke="#595959" points="309.23,-126.26 316.95,-119 306.39,-119.86 309.23,-126.26"/>
</g>
<!-- Ambulance -->
<g id="node6" class="node">
<title>Ambulance</title>
<path fill="white" stroke="#595959" d="M952.5,-94C952.5,-94 686.5,-94 686.5,-94 680.5,-94 674.5,-88 674.5,-82 674.5,-82 674.5,-68 674.5,-68 674.5,-62 680.5,-56 686.5,-56 686.5,-56 952.5,-56 952.5,-56 958.5,-56 964.5,-62 964.5,-68 964.5,-68 964.5,-82 964.5,-82 964.5,-88 958.5,-94 952.5,-94"/>
<text text-anchor="middle" x="819.5" y="-78.8" font-family="Arial" font-size="14.00">Ambulance / urgent access</text>
<text text-anchor="middle" x="819.5" y="-63.8" font-family="Arial" font-size="14.00">(treat&#45;and&#45;refer, non&#45;conveyance, after&#45;hours)</text>
</g>
<!-- Ambulance&#45;&gt;Access -->
<g id="edge6" class="edge">
<title>Ambulance&#45;&gt;Access</title>
<path fill="none" stroke="#595959" d="M947.9,-94.06C965.11,-96.9 982.5,-99.92 999,-103 1011.75,-105.38 1025.16,-108.08 1038.32,-110.83"/>
<polygon fill="#595959" stroke="#595959" points="1037.81,-114.3 1048.32,-112.95 1039.26,-107.45 1037.81,-114.3"/>
</g>
<!-- Delay -->
<g id="node8" class="node">
<title>Delay</title>
<path fill="white" stroke="#595959" d="M1546,-102C1546,-102 1391,-102 1391,-102 1385,-102 1379,-96 1379,-90 1379,-90 1379,-78 1379,-78 1379,-72 1385,-66 1391,-66 1391,-66 1546,-66 1546,-66 1552,-66 1558,-72 1558,-78 1558,-78 1558,-90 1558,-90 1558,-96 1552,-102 1546,-102"/>
<text text-anchor="middle" x="1468.5" y="-80.3" font-family="Arial" font-size="14.00">Unmet need / delayed care</text>
</g>
<!-- Access&#45;&gt;Delay -->
<g id="edge7" class="edge">
<title>Access&#45;&gt;Delay</title>
<path fill="none" stroke="#595959" d="M1222.22,-118.16C1267.68,-111.83 1322.54,-104.19 1368.84,-97.74"/>
<polygon fill="#595959" stroke="#595959" points="1369.46,-101.19 1378.88,-96.34 1368.49,-94.25 1369.46,-101.19"/>
<text text-anchor="middle" x="1300.5" y="-117.8" font-family="Arial" font-size="14.00">reduces</text>
</g>
<!-- Hospital -->
<g id="node9" class="node">
<title>Hospital</title>
<path fill="white" stroke="#595959" d="M1808,-58C1808,-58 1664,-58 1664,-58 1658,-58 1652,-52 1652,-46 1652,-46 1652,-34 1652,-34 1652,-28 1658,-22 1664,-22 1664,-22 1808,-22 1808,-22 1814,-22 1820,-28 1820,-34 1820,-34 1820,-46 1820,-46 1820,-52 1814,-58 1808,-58"/>
<text text-anchor="middle" x="1736" y="-36.3" font-family="Arial" font-size="14.00">ED and hospital pressure</text>
</g>
<!-- Delay&#45;&gt;Hospital -->
<g id="edge8" class="edge">
<title>Delay&#45;&gt;Hospital</title>
<path fill="none" stroke="#595959" d="M1558.28,-69.29C1585.13,-64.84 1614.69,-59.94 1641.82,-55.44"/>
<polygon fill="#595959" stroke="#595959" points="1642.4,-58.89 1651.69,-53.81 1641.26,-51.99 1642.4,-58.89"/>
<text text-anchor="middle" x="1605" y="-69.8" font-family="Arial" font-size="14.00">increases</text>
</g>
<!-- Hospital&#45;&gt;Funding -->
<g id="edge9" class="edge">
<title>Hospital&#45;&gt;Funding</title>
<path fill="none" stroke="#595959" d="M1651.94,-38.09C1491.64,-34.41 1138.65,-26.31 948.25,-21.93"/>
<polygon fill="#595959" stroke="#595959" points="948.26,-18.43 938.18,-21.7 948.1,-25.43 948.26,-18.43"/>
<text text-anchor="middle" x="1300.5" y="-35.8" font-family="Arial" font-size="14.00">hospital rescue loop</text>
</g>
<!-- KPIs&#45;&gt;Funding -->
<g id="edge10" class="edge">
<title>KPIs&#45;&gt;Funding</title>
<path fill="none" stroke="#595959" d="M415.37,-82.91C434.45,-77.21 456.02,-71.29 476,-67 546.35,-51.89 625.89,-40.41 690.6,-32.47"/>
<polygon fill="#595959" stroke="#595959" points="691.35,-35.9 700.85,-31.22 690.5,-28.95 691.35,-35.9"/>
<text text-anchor="middle" x="549" y="-70.8" font-family="Arial" font-size="14.00">shifts salience upstream</text>
</g>
<!-- KPIs&#45;&gt;Equity -->
<g id="edge13" class="edge">
<title>KPIs&#45;&gt;Equity</title>
<path fill="none" stroke="#595959" d="M458.25,-107.45C508.31,-110.73 570.83,-114.81 629.67,-118.66"/>
<polygon fill="#595959" stroke="#595959" points="629.63,-122.16 639.84,-119.32 630.09,-115.18 629.63,-122.16"/>
</g>
<!-- KPIs&#45;&gt;Ambulance -->
<g id="edge12" class="edge">
<title>KPIs&#45;&gt;Ambulance</title>
<path fill="none" stroke="#595959" d="M458.25,-95.41C518.15,-92.01 595.87,-87.61 663.79,-83.76"/>
<polygon fill="#595959" stroke="#595959" points="664.38,-87.24 674.17,-83.18 663.99,-80.25 664.38,-87.24"/>
</g>
</g>
</svg>
