<?xml version="1.0" encoding="UTF-8" standalone="no"?>
<!DOCTYPE svg PUBLIC "-//W3C//DTD SVG 1.1//EN"
 "http://www.w3.org/Graphics/SVG/1.1/DTD/svg11.dtd">
<!-- Generated by graphviz version 2.42.4 (0)
 -->
<!-- Title: G Pages: 1 -->
<svg width="3233pt" height="645pt"
 viewBox="0.00 0.00 3233.00 645.00" xmlns="http://www.w3.org/2000/svg" xmlns:xlink="http://www.w3.org/1999/xlink">
<g id="graph0" class="graph" transform="scale(1 1) rotate(0) translate(18 627)">
<title>G</title>
<polygon fill="white" stroke="transparent" points="-18,18 -18,-627 3215,-627 3215,18 -18,18"/>
<!-- Govt -->
<g id="node1" class="node">
<title>Govt</title>
<path fill="#f7f7f7" stroke="#444444" d="M619,-119C619,-119 373,-119 373,-119 367,-119 361,-113 361,-107 361,-107 361,-95 361,-95 361,-89 367,-83 373,-83 373,-83 619,-83 619,-83 625,-83 631,-89 631,-95 631,-95 631,-107 631,-107 631,-113 625,-119 619,-119"/>
<text text-anchor="middle" x="496" y="-104" font-family="Helvetica,sans-Serif" font-size="10.00">Government / Ministers</text>
<text text-anchor="middle" x="496" y="-93" font-family="Helvetica,sans-Serif" font-size="10.00">objective: visible access, fiscal control, political risk</text>
</g>
<!-- HNZ -->
<g id="node3" class="node">
<title>HNZ</title>
<path fill="#f7f7f7" stroke="#444444" d="M986,-278.5C986,-278.5 821,-278.5 821,-278.5 815,-278.5 809,-272.5 809,-266.5 809,-266.5 809,-249.5 809,-249.5 809,-243.5 815,-237.5 821,-237.5 821,-237.5 986,-237.5 986,-237.5 992,-237.5 998,-243.5 998,-249.5 998,-249.5 998,-266.5 998,-266.5 998,-272.5 992,-278.5 986,-278.5"/>
<text text-anchor="middle" x="903.5" y="-266.5" font-family="Helvetica,sans-Serif" font-size="10.00">Health NZ</text>
<text text-anchor="middle" x="903.5" y="-255.5" font-family="Helvetica,sans-Serif" font-size="10.00">commissioner + hospital operator</text>
<text text-anchor="middle" x="903.5" y="-244.5" font-family="Helvetica,sans-Serif" font-size="10.00">objective: targets, deficits, delivery</text>
</g>
<!-- Govt&#45;&gt;HNZ -->
<g id="edge1" class="edge">
<title>Govt&#45;&gt;HNZ</title>
<path fill="none" stroke="#555555" d="M543.52,-119.01C616.48,-147.26 757.94,-202.03 839.81,-233.73"/>
<polygon fill="#555555" stroke="#555555" points="838.91,-237.13 849.49,-237.48 841.43,-230.6 838.91,-237.13"/>
<text text-anchor="middle" x="720" y="-209.8" font-family="Helvetica,sans-Serif" font-size="9.00">funding direction + targets</text>
</g>
<!-- Treasury -->
<g id="node2" class="node">
<title>Treasury</title>
<path fill="#f7f7f7" stroke="#444444" d="M239,-119C239,-119 12,-119 12,-119 6,-119 0,-113 0,-107 0,-107 0,-95 0,-95 0,-89 6,-83 12,-83 12,-83 239,-83 239,-83 245,-83 251,-89 251,-95 251,-95 251,-107 251,-107 251,-113 245,-119 239,-119"/>
<text text-anchor="middle" x="125.5" y="-104" font-family="Helvetica,sans-Serif" font-size="10.00">Treasury / fiscal monitor</text>
<text text-anchor="middle" x="125.5" y="-93" font-family="Helvetica,sans-Serif" font-size="10.00">objective: value, exposure, whole&#45;of&#45;Crown cost</text>
</g>
<!-- Treasury&#45;&gt;Govt -->
<g id="edge2" class="edge">
<title>Treasury&#45;&gt;Govt</title>
<path fill="none" stroke="#555555" d="M251,-101C282.99,-101 317.68,-101 350.58,-101"/>
<polygon fill="#555555" stroke="#555555" points="350.73,-104.5 360.73,-101 350.73,-97.5 350.73,-104.5"/>
<text text-anchor="middle" x="306" y="-103.8" font-family="Helvetica,sans-Serif" font-size="9.00">fiscal advice</text>
</g>
<!-- Hospitals -->
<g id="node4" class="node">
<title>Hospitals</title>
<path fill="#f7f7f7" stroke="#444444" d="M3185,-464C3185,-464 3025,-464 3025,-464 3019,-464 3013,-458 3013,-452 3013,-452 3013,-440 3013,-440 3013,-434 3019,-428 3025,-428 3025,-428 3185,-428 3185,-428 3191,-428 3197,-434 3197,-440 3197,-440 3197,-452 3197,-452 3197,-458 3191,-464 3185,-464"/>
<text text-anchor="middle" x="3105" y="-449" font-family="Helvetica,sans-Serif" font-size="10.00">Hospitals / ED / specialist services</text>
<text text-anchor="middle" x="3105" y="-438" font-family="Helvetica,sans-Serif" font-size="10.00">visible pressure, direct operation</text>
</g>
<!-- HNZ&#45;&gt;Hospitals -->
<g id="edge3" class="edge">
<title>HNZ&#45;&gt;Hospitals</title>
<path fill="none" stroke="#555555" d="M915.23,-278.56C955.34,-352.29 1104.37,-599 1302.5,-599 1302.5,-599 1302.5,-599 2726.5,-599 2862.25,-599 3006.69,-512.96 3070.44,-469.93"/>
<polygon fill="#555555" stroke="#555555" points="3072.61,-472.68 3078.9,-464.15 3068.66,-466.9 3072.61,-472.68"/>
<text text-anchor="middle" x="2002" y="-601.8" font-family="Helvetica,sans-Serif" font-size="9.00">direct operation / rescue pressure</text>
</g>
<!-- Primary -->
<g id="node5" class="node">
<title>Primary</title>
<path fill="#f7f7f7" stroke="#444444" d="M1886,-438C1886,-438 1594,-438 1594,-438 1588,-438 1582,-432 1582,-426 1582,-426 1582,-414 1582,-414 1582,-408 1588,-402 1594,-402 1594,-402 1886,-402 1886,-402 1892,-402 1898,-408 1898,-414 1898,-414 1898,-426 1898,-426 1898,-432 1892,-438 1886,-438"/>
<text text-anchor="middle" x="1740" y="-423" font-family="Helvetica,sans-Serif" font-size="10.00">Primary &amp; urgent care providers</text>
<text text-anchor="middle" x="1740" y="-412" font-family="Helvetica,sans-Serif" font-size="10.00">GPs, NPs, pharmacists, allied health, Maori/Pacific, telehealth</text>
</g>
<!-- HNZ&#45;&gt;Primary -->
<g id="edge6" class="edge">
<title>HNZ&#45;&gt;Primary</title>
<path fill="none" stroke="#555555" stroke-dasharray="5,2" d="M981.12,-278.57C995.65,-282.23 1010.76,-285.87 1025,-289 1231.74,-334.5 1474.56,-376.69 1617.12,-400.32"/>
<polygon fill="#555555" stroke="#555555" points="1616.77,-403.81 1627.21,-401.99 1617.91,-396.91 1616.77,-403.81"/>
<text text-anchor="middle" x="1303.5" y="-365.8" font-family="Helvetica,sans-Serif" font-size="9.00">possible direct benefits schedule</text>
</g>
<!-- PHO -->
<g id="node6" class="node">
<title>PHO</title>
<path fill="#f7f7f7" stroke="#444444" d="M1399,-439C1399,-439 1208,-439 1208,-439 1202,-439 1196,-433 1196,-427 1196,-427 1196,-415 1196,-415 1196,-409 1202,-403 1208,-403 1208,-403 1399,-403 1399,-403 1405,-403 1411,-409 1411,-415 1411,-415 1411,-427 1411,-427 1411,-433 1405,-439 1399,-439"/>
<text text-anchor="middle" x="1303.5" y="-424" font-family="Helvetica,sans-Serif" font-size="10.00">PHOs / locality intermediaries</text>
<text text-anchor="middle" x="1303.5" y="-413" font-family="Helvetica,sans-Serif" font-size="10.00">coordination value or transaction friction</text>
</g>
<!-- HNZ&#45;&gt;PHO -->
<g id="edge4" class="edge">
<title>HNZ&#45;&gt;PHO</title>
<path fill="none" stroke="#555555" d="M918.97,-278.56C939.3,-305.7 979,-352.76 1025,-376 1074.21,-400.86 1134.03,-412.55 1185.51,-417.84"/>
<polygon fill="#555555" stroke="#555555" points="1185.4,-421.35 1195.69,-418.82 1186.07,-414.38 1185.4,-421.35"/>
<text text-anchor="middle" x="1097" y="-417.8" font-family="Helvetica,sans-Serif" font-size="9.00">contracts / programme funding</text>
</g>
<!-- Ambulance -->
<g id="node7" class="node">
<title>Ambulance</title>
<path fill="#f7f7f7" stroke="#444444" d="M2845,-365C2845,-365 2606,-365 2606,-365 2600,-365 2594,-359 2594,-353 2594,-353 2594,-341 2594,-341 2594,-335 2600,-329 2606,-329 2606,-329 2845,-329 2845,-329 2851,-329 2857,-335 2857,-341 2857,-341 2857,-353 2857,-353 2857,-359 2851,-365 2845,-365"/>
<text text-anchor="middle" x="2725.5" y="-350" font-family="Helvetica,sans-Serif" font-size="10.00">Ambulance / paramedics</text>
<text text-anchor="middle" x="2725.5" y="-339" font-family="Helvetica,sans-Serif" font-size="10.00">conveyance, treat&#45;and&#45;refer, alternative pathways</text>
</g>
<!-- HNZ&#45;&gt;Ambulance -->
<g id="edge7" class="edge">
<title>HNZ&#45;&gt;Ambulance</title>
<path fill="none" stroke="#555555" d="M998.15,-256.46C1114.69,-254.68 1319.78,-252 1495.5,-252 1495.5,-252 1495.5,-252 2220.5,-252 2379.17,-252 2561.14,-298.03 2657.1,-326.01"/>
<polygon fill="#555555" stroke="#555555" points="2656.38,-329.44 2666.96,-328.91 2658.35,-322.73 2656.38,-329.44"/>
<text text-anchor="middle" x="1740" y="-254.8" font-family="Helvetica,sans-Serif" font-size="9.00">commissioning with ACC</text>
</g>
<!-- Data -->
<g id="node9" class="node">
<title>Data</title>
<path fill="#f7f7f7" stroke="#444444" d="M1385,-185C1385,-185 1222,-185 1222,-185 1216,-185 1210,-179 1210,-173 1210,-173 1210,-161 1210,-161 1210,-155 1216,-149 1222,-149 1222,-149 1385,-149 1385,-149 1391,-149 1397,-155 1397,-161 1397,-161 1397,-173 1397,-173 1397,-179 1391,-185 1385,-185"/>
<text text-anchor="middle" x="1303.5" y="-170" font-family="Helvetica,sans-Serif" font-size="10.00">Targets + data</text>
<text text-anchor="middle" x="1303.5" y="-159" font-family="Helvetica,sans-Serif" font-size="10.00">what is measured becomes salient</text>
</g>
<!-- HNZ&#45;&gt;Data -->
<g id="edge18" class="edge">
<title>HNZ&#45;&gt;Data</title>
<path fill="none" stroke="#555555" d="M969.23,-237.44C987.2,-232.06 1006.77,-226.52 1025,-222 1082.44,-207.76 1147.28,-194.74 1199.83,-184.95"/>
<polygon fill="#555555" stroke="#555555" points="1200.64,-188.36 1209.83,-183.1 1199.36,-181.48 1200.64,-188.36"/>
<text text-anchor="middle" x="1097" y="-224.8" font-family="Helvetica,sans-Serif" font-size="9.00">dataset / KPI design</text>
</g>
<!-- Hospitals&#45;&gt;Govt -->
<g id="edge15" class="edge">
<title>Hospitals&#45;&gt;Govt</title>
<path fill="none" stroke="#555555" d="M3098.77,-427.96C3073.39,-344.52 2954.75,0 2726.5,0 902.5,0 902.5,0 902.5,0 772.4,0 625.59,-49.56 549.32,-79.25"/>
<polygon fill="#555555" stroke="#555555" points="547.95,-76.03 539.93,-82.94 550.51,-82.54 547.95,-76.03"/>
<text text-anchor="middle" x="1740" y="-2.8" font-family="Helvetica,sans-Serif" font-size="9.00">visible crisis / political penalty</text>
</g>
<!-- Primary&#45;&gt;Hospitals -->
<g id="edge14" class="edge">
<title>Primary&#45;&gt;Hospitals</title>
<path fill="none" stroke="#555555" stroke-dasharray="5,2" d="M1833.44,-438.04C1862.65,-443.35 1895.11,-448.84 1925,-453 2005.07,-464.14 2025.27,-466.84 2106,-471 2451.32,-488.8 2538.22,-473.33 2884,-474 2929.33,-474.09 2940.97,-479.27 2986,-474 3000.44,-472.31 3015.68,-469.49 3030.23,-466.28"/>
<polygon fill="#555555" stroke="#555555" points="3031.21,-469.65 3040.18,-464.01 3029.65,-462.83 3031.21,-469.65"/>
<text text-anchor="middle" x="2463.5" y="-481.8" font-family="Helvetica,sans-Serif" font-size="9.00">reduced avoidable demand if supply expands</text>
</g>
<!-- Patients -->
<g id="node8" class="node">
<title>Patients</title>
<path fill="#f7f7f7" stroke="#444444" d="M2321,-451C2321,-451 2118,-451 2118,-451 2112,-451 2106,-445 2106,-439 2106,-439 2106,-427 2106,-427 2106,-421 2112,-415 2118,-415 2118,-415 2321,-415 2321,-415 2327,-415 2333,-421 2333,-427 2333,-427 2333,-439 2333,-439 2333,-445 2327,-451 2321,-451"/>
<text text-anchor="middle" x="2219.5" y="-436" font-family="Helvetica,sans-Serif" font-size="10.00">Patients / whanau</text>
<text text-anchor="middle" x="2219.5" y="-425" font-family="Helvetica,sans-Serif" font-size="10.00">need, price sensitivity, trust, wait, distance</text>
</g>
<!-- Primary&#45;&gt;Patients -->
<g id="edge11" class="edge">
<title>Primary&#45;&gt;Patients</title>
<path fill="none" stroke="#555555" d="M1898.06,-429.95C1907.18,-430.35 1916.2,-430.71 1925,-431 1981.1,-432.87 2043.26,-433.5 2095.88,-433.61"/>
<polygon fill="#555555" stroke="#555555" points="2095.92,-437.11 2105.93,-433.63 2095.93,-430.11 2095.92,-437.11"/>
<text text-anchor="middle" x="2002" y="-435.8" font-family="Helvetica,sans-Serif" font-size="9.00">access, co&#45;pay, continuity</text>
</g>
<!-- PHO&#45;&gt;Primary -->
<g id="edge5" class="edge">
<title>PHO&#45;&gt;Primary</title>
<path fill="none" stroke="#555555" d="M1411.07,-420.75C1459.44,-420.64 1517.8,-420.51 1571.8,-420.38"/>
<polygon fill="#555555" stroke="#555555" points="1571.83,-423.88 1581.82,-420.36 1571.82,-416.88 1571.83,-423.88"/>
<text text-anchor="middle" x="1496.5" y="-422.8" font-family="Helvetica,sans-Serif" font-size="9.00">capitation + programmes</text>
</g>
<!-- Ambulance&#45;&gt;Hospitals -->
<g id="edge12" class="edge">
<title>Ambulance&#45;&gt;Hospitals</title>
<path fill="none" stroke="#555555" d="M2819.32,-365.05C2869.09,-375.41 2931.27,-389.43 2986,-405 3005.99,-410.69 3027.54,-417.86 3046.69,-424.61"/>
<polygon fill="#555555" stroke="#555555" points="3045.58,-427.93 3056.17,-427.98 3047.93,-421.33 3045.58,-427.93"/>
<text text-anchor="middle" x="2935" y="-407.8" font-family="Helvetica,sans-Serif" font-size="9.00">conveyance / ramping</text>
</g>
<!-- Ambulance&#45;&gt;Primary -->
<g id="edge13" class="edge">
<title>Ambulance&#45;&gt;Primary</title>
<path fill="none" stroke="#555555" stroke-dasharray="5,2" d="M2593.79,-353.73C2468.55,-360.48 2274.25,-371.77 2106,-385 2041.38,-390.08 1970.41,-396.66 1908.37,-402.74"/>
<polygon fill="#555555" stroke="#555555" points="1907.71,-399.29 1898.1,-403.75 1908.39,-406.25 1907.71,-399.29"/>
<text text-anchor="middle" x="2219.5" y="-387.8" font-family="Helvetica,sans-Serif" font-size="9.00">treat&#45;and&#45;refer / follow&#45;up</text>
</g>
<!-- Patients&#45;&gt;Hospitals -->
<g id="edge10" class="edge">
<title>Patients&#45;&gt;Hospitals</title>
<path fill="none" stroke="#555555" d="M2333.29,-434.66C2506.78,-437.21 2836.45,-442.06 3002.72,-444.51"/>
<polygon fill="#555555" stroke="#555555" points="3002.9,-448.01 3012.95,-444.66 3003,-441.01 3002.9,-448.01"/>
<text text-anchor="middle" x="2725.5" y="-444.8" font-family="Helvetica,sans-Serif" font-size="9.00">ED default if upstream constrained</text>
</g>
<!-- Patients&#45;&gt;Primary -->
<g id="edge8" class="edge">
<title>Patients&#45;&gt;Primary</title>
<path fill="none" stroke="#555555" d="M2105.88,-421.6C2096.79,-420.96 2087.75,-420.41 2079,-420 2023.54,-417.42 1962.91,-416.75 1908.5,-416.93"/>
<polygon fill="#555555" stroke="#555555" points="1908.4,-413.43 1898.42,-416.97 1908.43,-420.43 1908.4,-413.43"/>
<text text-anchor="middle" x="2002" y="-422.8" font-family="Helvetica,sans-Serif" font-size="9.00">early care if price/wait acceptable</text>
</g>
<!-- Patients&#45;&gt;Ambulance -->
<g id="edge9" class="edge">
<title>Patients&#45;&gt;Ambulance</title>
<path fill="none" stroke="#555555" d="M2326.15,-414.97C2408.9,-400.85 2523.85,-381.24 2609.01,-366.71"/>
<polygon fill="#555555" stroke="#555555" points="2609.72,-370.14 2618.98,-365 2608.54,-363.24 2609.72,-370.14"/>
<text text-anchor="middle" x="2463.5" y="-409.8" font-family="Helvetica,sans-Serif" font-size="9.00">urgent need / access failure</text>
</g>
<!-- Data&#45;&gt;Govt -->
<g id="edge16" class="edge">
<title>Data&#45;&gt;Govt</title>
<path fill="none" stroke="#555555" d="M1222.68,-148.94C1205.08,-145.49 1186.47,-142.26 1169,-140 987.95,-116.56 777.63,-107.2 641.18,-103.47"/>
<polygon fill="#555555" stroke="#555555" points="641.17,-99.97 631.08,-103.2 640.98,-106.97 641.17,-99.97"/>
<text text-anchor="middle" x="903.5" y="-125.8" font-family="Helvetica,sans-Serif" font-size="9.00">salience of measured domains</text>
</g>
<!-- Data&#45;&gt;HNZ -->
<g id="edge17" class="edge">
<title>Data&#45;&gt;HNZ</title>
<path fill="none" stroke="#555555" d="M1209.84,-152.51C1154.74,-147.41 1084.27,-147.13 1025,-167 987.93,-179.43 953.15,-208.26 930.58,-230.16"/>
<polygon fill="#555555" stroke="#555555" points="928.03,-227.76 923.41,-237.29 932.97,-232.73 928.03,-227.76"/>
<text text-anchor="middle" x="1097" y="-169.8" font-family="Helvetica,sans-Serif" font-size="9.00">performance management</text>
</g>
</g>
</svg>
